<svg version="1.1" id="Layer_1" xmlns="http://www.w3.org/2000/svg" xmlns:xlink="http://www.w3.org/1999/xlink" x="0px" y="0px"
	 width="100%" viewBox="0 0 200 200" enable-background="new 0 0 200 200" xml:space="preserve">
<path fill="#1E2024" opacity="1.000000" stroke="none" 
	d="
M201.000000,84.000000 
	C201.000000,122.926018 201.000000,161.852036 201.000000,201.000000 
	C163.312729,201.000000 125.625023,201.000000 87.514984,200.654419 
	C92.751091,191.986832 98.249184,183.724396 106.896042,177.796066 
	C112.765060,173.772247 118.266808,168.605423 122.365967,162.836456 
	C124.803932,159.405365 126.709885,159.095673 129.977737,159.831421 
	C130.690018,158.592316 131.247971,156.583771 131.974915,156.520630 
	C138.011520,155.996277 137.378296,152.708298 135.087341,148.736816 
	C138.729736,147.248810 143.522934,147.617416 143.421158,142.064651 
	C143.418869,141.940308 145.792099,141.680313 147.061783,141.644302 
	C149.552505,141.573669 153.088074,142.611649 154.279694,141.364456 
	C155.825928,139.746109 159.348541,136.459076 155.130478,134.271530 
	C158.888474,131.877914 162.631699,129.493698 167.533615,126.371460 
	C171.642548,127.394119 173.346497,125.569878 172.663361,117.981544 
	C172.802353,116.416786 172.922501,115.209915 173.293930,113.789749 
	C180.528976,105.385475 187.429947,97.121361 194.554825,89.055023 
	C196.332443,87.042519 198.832169,85.667839 201.000000,84.000000 
z"/>
<path fill="#1B1E22" opacity="1.000000" stroke="none" 
	d="
M172.644516,118.339432 
	C173.346497,125.569878 171.642548,127.394119 167.533615,126.371460 
	C162.631699,129.493698 158.888474,131.877914 155.130478,134.271530 
	C159.348541,136.459076 155.825928,139.746109 154.279694,141.364456 
	C153.088074,142.611649 149.552505,141.573669 147.061783,141.644302 
	C145.792099,141.680313 143.418869,141.940308 143.421158,142.064651 
	C143.522934,147.617416 138.729736,147.248810 135.087341,148.736816 
	C137.378296,152.708298 138.011520,155.996277 131.974915,156.520630 
	C131.247971,156.583771 130.690018,158.592316 129.977737,159.831421 
	C126.709885,159.095673 124.803932,159.405365 122.365967,162.836456 
	C118.266808,168.605423 112.765060,173.772247 106.896042,177.796066 
	C98.249184,183.724396 92.751091,191.986832 87.046326,200.654419 
	C69.312439,201.000000 51.624878,201.000000 33.470406,200.600281 
	C33.101177,199.377747 32.920132,198.356995 33.341331,197.763977 
	C36.287193,193.616531 35.217735,191.158463 30.372932,190.036697 
	C30.034260,189.958267 29.819244,189.345764 30.409039,190.133850 
	C32.603813,187.054565 34.318081,184.433945 36.276989,182.011124 
	C37.021355,181.090485 38.455002,180.761826 39.357231,179.928223 
	C43.533974,176.069031 48.044956,172.454849 51.558128,168.052231 
	C52.945656,166.313431 53.204960,164.021606 56.059811,163.723480 
	C57.066559,163.618317 58.725964,162.625549 58.805855,161.897430 
	C59.526661,155.328125 64.902557,156.195755 69.106911,155.169464 
	C70.268669,154.885864 71.423271,154.572968 72.581154,154.273529 
	C72.592056,153.849426 72.602959,153.425323 72.613861,153.001236 
	C70.389000,152.486603 68.164131,151.971985 66.059555,151.485184 
	C66.713982,149.318939 67.356316,147.192719 68.332497,145.127731 
	C75.889229,150.282104 83.112114,155.375244 91.066643,160.984299 
	C91.066643,154.748230 89.986748,149.458344 91.408272,144.958710 
	C92.545830,141.357941 91.742828,139.425903 90.322220,137.001953 
	C94.055397,134.661011 97.419174,132.334122 101.067703,129.810242 
	C101.578362,130.098267 102.700180,131.167847 103.889816,131.249542 
	C104.693321,131.304703 105.592407,129.967728 106.448746,129.253448 
	C103.432625,125.720222 106.448174,123.735359 108.635010,121.972061 
	C112.679146,118.711174 117.009033,115.804672 121.381256,112.633514 
	C120.533928,107.048691 125.880737,105.282127 129.381744,101.998657 
	C131.216354,101.252670 132.882431,100.749939 134.067261,99.702721 
	C135.581085,98.364708 136.706619,96.587379 138.397522,94.999641 
	C142.647461,96.044418 145.858398,95.143745 148.648132,91.904686 
	C151.473541,93.383713 153.900909,94.900032 156.411926,96.262108 
	C161.907272,99.242981 162.010956,100.647263 156.906860,104.148338 
	C156.387451,104.504623 156.004623,105.056778 155.493500,105.428879 
	C142.411011,114.953064 129.330353,124.479858 116.219139,133.964386 
	C114.212173,135.416214 112.057228,136.663467 109.660027,138.164383 
	C109.342361,144.231674 109.335403,150.139938 109.370911,156.363556 
	C109.391006,157.101807 109.368652,157.524704 109.089607,158.097458 
	C109.033875,158.846634 109.234840,159.445953 109.514053,160.338562 
	C111.019501,160.362747 112.744774,160.519897 113.829659,159.761261 
	C133.480560,146.019699 153.054306,132.167786 172.644516,118.339432 
M130.827621,150.466629 
	C130.822800,150.811310 130.814758,151.156158 130.831100,151.499832 
	C130.831528,151.508667 131.223297,151.514786 131.224045,151.505402 
	C131.251633,151.162491 131.254471,150.817596 130.827621,150.466629 
z"/>
<path fill="#161519" opacity="1.000000" stroke="none" 
	d="
M0.999999,126.000000 
	C1.000000,111.645775 1.000000,97.291542 1.460891,82.468658 
	C3.418608,82.000000 4.915435,82.000687 6.412261,81.999886 
	C16.667957,81.994370 17.985825,80.937149 17.888521,70.631630 
	C17.846077,66.136398 20.038143,65.933777 23.419243,65.954170 
	C31.548784,66.003212 31.607052,65.859535 33.188713,58.056309 
	C33.451458,56.760044 34.018616,55.445034 33.931484,54.173889 
	C33.701473,50.818108 35.230682,49.984829 38.368439,49.935432 
	C49.013680,49.767857 49.930729,48.934910 49.911060,38.673653 
	C49.903698,34.832550 51.287354,33.910389 54.877308,33.923954 
	C64.759354,33.961285 65.885628,32.790592 65.932762,22.664543 
	C65.948166,19.355284 66.791573,18.157370 70.363243,17.862333 
	C81.099777,16.975443 81.999733,15.734559 81.999992,4.991544 
	C82.000023,3.661030 82.000000,2.330515 82.000000,1.000000 
	C100.687561,1.000000 119.375122,1.000000 138.482330,1.341291 
	C127.722427,13.054694 116.517403,24.402075 105.408485,35.842785 
	C104.451210,36.828644 103.787270,38.389160 103.613640,39.761982 
	C103.450500,41.051933 104.117447,42.446865 104.419159,43.795609 
	C102.796997,43.795609 101.174835,43.795609 99.282440,43.795609 
	C99.748535,49.479523 95.644211,49.736279 91.436180,49.583572 
	C91.411476,47.094006 91.505379,45.032909 91.913338,42.949081 
	C92.589516,42.687981 92.951653,42.449615 93.313789,42.211258 
	C93.162102,41.989845 93.010422,41.768433 92.858742,41.547020 
	C92.440231,41.970676 92.021721,42.394333 91.378326,42.502220 
	C90.464020,42.288574 89.613419,42.164917 89.108414,42.525402 
	C69.932755,56.213268 50.751617,69.894562 31.718294,83.778374 
	C30.340176,84.783623 29.453732,87.283127 29.386478,89.126137 
	C29.059853,98.076920 29.090588,107.040741 28.626846,115.943779 
	C26.662039,112.871986 25.065145,109.856354 23.650253,107.184425 
	C17.668137,112.733406 11.385331,118.654694 4.962997,124.420570 
	C3.969837,125.312210 2.337007,125.491356 0.999999,126.000000 
M100.808945,37.701210 
	C100.566696,36.176537 100.324448,34.651863 100.082207,33.127190 
	C99.406219,33.380280 98.730232,33.633369 98.054237,33.886459 
	C98.842667,35.342651 99.631088,36.798840 100.808945,37.701210 
z"/>
<path fill="#18181C" opacity="1.000000" stroke="none" 
	d="
M91.554794,50.012047 
	C95.644211,49.736279 99.748535,49.479523 99.282440,43.795609 
	C101.174835,43.795609 102.796997,43.795609 104.419159,43.795609 
	C104.117447,42.446865 103.450500,41.051933 103.613640,39.761982 
	C103.787270,38.389160 104.451210,36.828644 105.408485,35.842785 
	C116.517403,24.402075 127.722427,13.054694 138.950989,1.341291 
	C150.687561,1.000000 162.375122,1.000000 174.485199,1.355234 
	C169.318771,7.923275 163.931076,14.333036 158.091156,20.300222 
	C150.376831,28.182676 142.263672,35.673279 134.411514,43.423058 
	C130.804535,46.983006 127.018234,46.449703 124.976562,41.835915 
	C124.603851,40.993668 124.444511,40.057003 124.186684,39.163921 
	C123.643082,39.581474 123.099487,39.999023 122.555893,40.416573 
	C122.555893,41.780636 122.555893,43.144703 122.555893,44.706673 
	C120.417717,44.506374 118.649284,44.340710 116.896362,44.163765 
	C116.911880,44.152485 116.886513,44.139309 116.873474,43.767250 
	C115.503662,42.668755 114.146881,41.942318 112.829872,41.189724 
	C112.869637,41.163570 112.888710,41.256832 112.744270,40.967567 
	C112.011536,40.473339 111.423248,40.268368 110.627182,40.093540 
	C110.419411,40.123680 110.012711,40.019310 109.785805,39.790321 
	C108.895485,40.784161 107.881165,41.940674 107.635162,43.242390 
	C106.927650,46.986198 106.983452,50.928963 105.869705,54.524151 
	C104.963989,57.447792 107.375221,68.163193 110.335930,69.401955 
	C112.223793,70.191833 114.449135,70.175140 115.922577,70.420204 
	C116.819000,73.435799 117.562012,75.935341 118.296600,78.406532 
	C115.652557,79.570663 113.026970,80.726677 110.256104,81.946648 
	C109.650009,80.726357 109.442734,79.854454 108.903862,79.311897 
	C107.461769,77.859970 105.877472,76.549271 104.349686,75.182465 
	C103.274727,76.895004 102.287903,78.671722 101.100388,80.302284 
	C99.877831,81.980949 98.612000,83.685280 97.084862,85.069122 
	C95.508339,86.497719 93.387886,87.340744 91.867294,88.813583 
	C87.489380,93.054016 83.249222,97.440163 79.040253,101.850487 
	C75.175514,105.900116 71.421715,110.055611 67.610924,114.173233 
	C68.599785,114.977036 69.652740,115.832932 70.267929,116.332985 
	C67.454910,116.595818 64.572159,116.865158 61.345673,117.108536 
	C54.755554,112.457039 48.787075,107.365692 42.145142,103.403191 
	C38.841488,101.432259 39.466053,100.953545 41.805988,99.340973 
	C45.018452,97.127106 48.185329,94.847046 51.399342,92.635468 
	C63.068398,84.605965 74.788162,76.649307 86.399796,68.537766 
	C89.620125,66.288139 92.214355,63.640862 91.378792,58.919186 
	C90.871109,56.050362 91.459038,52.987656 91.554794,50.012047 
z"/>
<path fill="#1A1A1E" opacity="1.000000" stroke="none" 
	d="
M67.998650,145.066498 
	C67.356316,147.192719 66.713982,149.318939 66.059555,151.485184 
	C68.164131,151.971985 70.389000,152.486603 72.613861,153.001236 
	C72.602959,153.425323 72.592056,153.849426 72.581154,154.273529 
	C71.423271,154.572968 70.268669,154.885864 69.106911,155.169464 
	C64.902557,156.195755 59.526661,155.328125 58.805855,161.897430 
	C58.725964,162.625549 57.066559,163.618317 56.059811,163.723480 
	C53.204960,164.021606 52.945656,166.313431 51.558128,168.052231 
	C48.044956,172.454849 43.533974,176.069031 39.357231,179.928223 
	C38.455002,180.761826 37.021355,181.090485 36.276989,182.011124 
	C34.318081,184.433945 32.603813,187.054565 30.409039,190.133850 
	C29.819244,189.345764 30.034260,189.958267 30.372932,190.036697 
	C35.217735,191.158463 36.287193,193.616531 33.341331,197.763977 
	C32.920132,198.356995 33.101177,199.377747 33.001747,200.600281 
	C30.299986,201.000000 27.599974,201.000000 24.449688,200.599075 
	C24.423595,197.404572 23.049091,194.972427 20.515587,195.653961 
	C18.664940,196.151810 17.481081,199.128357 15.999996,201.000000 
	C11.040121,201.000000 6.080242,201.000000 1.000000,201.000000 
	C1.000000,187.979309 1.000000,174.958313 1.451465,161.468658 
	C2.896610,161.000000 3.890290,161.001053 4.883968,160.999832 
	C13.738479,160.989059 16.191813,158.794281 16.976540,149.798004 
	C17.289822,146.206497 19.494062,145.766861 22.486761,144.811951 
	C28.140633,143.007904 33.533775,140.264008 38.804237,137.474213 
	C40.002701,136.839844 40.428928,134.474686 40.904873,132.818329 
	C41.458088,130.893082 41.674877,128.871140 42.371239,126.968857 
	C51.136082,133.053192 59.567368,139.059845 67.998650,145.066498 
M46.488850,132.553650 
	C46.488850,132.553650 46.452175,132.481064 46.488850,132.553650 
z"/>
<path fill="#1B1D22" opacity="1.000000" stroke="none" 
	d="
M201.000000,83.531342 
	C198.832169,85.667839 196.332443,87.042519 194.554825,89.055023 
	C187.429947,97.121361 180.528976,105.385475 173.191010,113.330078 
	C172.815933,104.807487 173.055786,96.517197 172.609558,88.264000 
	C172.481674,85.898849 170.901733,83.011955 169.063446,81.456467 
	C164.288254,77.415871 158.999588,73.982124 153.804169,70.036346 
	C153.370575,69.562248 153.048645,69.358025 152.695343,69.230911 
	C152.664001,69.308014 152.499680,69.334602 152.642838,68.991287 
	C153.234283,67.181007 154.500473,64.864403 154.000183,64.382812 
	C150.329559,60.849331 153.770966,59.338131 155.604996,57.196064 
	C160.317581,51.691952 169.667206,51.883732 172.169769,43.676605 
	C172.236465,43.457878 172.783203,43.427067 173.012436,43.209820 
	C174.895233,41.425415 176.739044,39.599735 178.628983,37.823032 
	C179.912720,36.616222 181.249069,35.465225 182.566391,34.294319 
	C186.252716,31.017704 189.963181,27.767555 193.599930,24.436857 
	C194.028641,24.044237 193.884186,23.047543 194.300873,22.616405 
	C196.481415,20.360199 198.757263,18.196104 201.000000,15.999996 
	C201.000000,38.354229 201.000000,60.708454 201.000000,83.531342 
z"/>
<path fill="#191B1F" opacity="1.000000" stroke="none" 
	d="
M201.000000,15.527333 
	C198.757263,18.196104 196.481415,20.360199 194.300873,22.616405 
	C193.884186,23.047543 194.028641,24.044237 193.599930,24.436857 
	C189.963181,27.767555 186.252716,31.017704 182.566391,34.294319 
	C181.249069,35.465225 179.912720,36.616222 178.628983,37.823032 
	C176.739044,39.599735 174.895233,41.425415 173.012436,43.209820 
	C172.783203,43.427067 172.236465,43.457878 172.169769,43.676605 
	C169.667206,51.883732 160.317581,51.691952 155.604996,57.196064 
	C153.770966,59.338131 150.329559,60.849331 154.000183,64.382812 
	C154.500473,64.864403 153.234283,67.181007 152.332687,68.887367 
	C140.213196,60.809521 128.547028,52.492287 116.880852,44.175049 
	C118.649284,44.340710 120.417717,44.506374 122.555893,44.706673 
	C122.555893,43.144703 122.555893,41.780636 122.555893,40.416573 
	C123.099487,39.999023 123.643082,39.581474 124.186684,39.163921 
	C124.444511,40.057003 124.603851,40.993668 124.976562,41.835915 
	C127.018234,46.449703 130.804535,46.983006 134.411514,43.423058 
	C142.263672,35.673279 150.376831,28.182676 158.091156,20.300222 
	C163.931076,14.333036 169.318771,7.923275 174.953857,1.355234 
	C183.571365,1.000000 192.142746,1.000000 201.000000,1.000000 
	C201.000000,5.681061 201.000000,10.367867 201.000000,15.527333 
z"/>
<path fill="#131315" opacity="1.000000" stroke="none" 
	d="
M81.531464,1.000000 
	C82.000000,2.330515 82.000023,3.661030 81.999992,4.991544 
	C81.999733,15.734559 81.099777,16.975443 70.363243,17.862333 
	C66.791573,18.157370 65.948166,19.355284 65.932762,22.664543 
	C65.885628,32.790592 64.759354,33.961285 54.877308,33.923954 
	C51.287354,33.910389 49.903698,34.832550 49.911060,38.673653 
	C49.930729,48.934910 49.013680,49.767857 38.368439,49.935432 
	C35.230682,49.984829 33.701473,50.818108 33.931484,54.173889 
	C34.018616,55.445034 33.451458,56.760044 33.188713,58.056309 
	C31.607052,65.859535 31.548784,66.003212 23.419243,65.954170 
	C20.038143,65.933777 17.846077,66.136398 17.888521,70.631630 
	C17.985825,80.937149 16.667957,81.994370 6.412261,81.999886 
	C4.915435,82.000687 3.418608,82.000000 1.460891,82.000000 
	C1.000000,75.312355 1.000000,68.624710 1.344682,61.422447 
	C6.506038,56.726475 11.548820,52.774792 16.085123,48.308666 
	C22.506378,41.986759 28.547215,35.278881 34.767784,28.752304 
	C35.796200,27.673296 36.924217,26.689936 37.985641,25.641552 
	C44.391754,19.314119 50.853741,13.041162 57.150223,6.606328 
	C58.712074,5.010155 59.731331,2.883053 61.000000,0.999999 
	C67.687645,1.000000 74.375290,1.000000 81.531464,1.000000 
z"/>
<path fill="#18171B" opacity="1.000000" stroke="none" 
	d="
M42.037678,126.891174 
	C41.674877,128.871140 41.458088,130.893082 40.904873,132.818329 
	C40.428928,134.474686 40.002701,136.839844 38.804237,137.474213 
	C33.533775,140.264008 28.140633,143.007904 22.486761,144.811951 
	C19.494062,145.766861 17.289822,146.206497 16.976540,149.798004 
	C16.191813,158.794281 13.738479,160.989059 4.883968,160.999832 
	C3.890290,161.001053 2.896610,161.000000 1.451465,161.000000 
	C1.000000,149.645767 1.000000,138.291550 0.999999,126.468658 
	C2.337007,125.491356 3.969837,125.312210 4.962997,124.420570 
	C11.385331,118.654694 17.668137,112.733406 23.650253,107.184425 
	C25.065145,109.856354 26.662039,112.871986 28.755001,116.251251 
	C31.174881,118.389458 33.098690,120.164032 35.029163,122.302399 
	C35.835873,125.285973 37.244675,126.787560 40.469772,125.582687 
	C41.180431,126.093346 41.609055,126.492256 42.037678,126.891174 
M26.510988,117.446144 
	C26.510988,117.446144 26.547384,117.518272 26.510988,117.446144 
z"/>
<path fill="#121214" opacity="1.000000" stroke="none" 
	d="
M60.531593,0.999999 
	C59.731331,2.883053 58.712074,5.010155 57.150223,6.606328 
	C50.853741,13.041162 44.391754,19.314119 37.985641,25.641552 
	C36.924217,26.689936 35.796200,27.673296 34.767784,28.752304 
	C28.547215,35.278881 22.506378,41.986759 16.085123,48.308666 
	C11.548820,52.774792 6.506038,56.726475 1.344682,60.953911 
	C1.000000,55.311958 1.000000,49.623920 1.343887,43.422176 
	C7.205225,37.986557 12.924703,33.270065 18.190104,28.091852 
	C25.111023,21.285536 31.773350,14.205860 38.313221,7.030765 
	C39.720451,5.486849 40.130569,3.034101 41.000000,0.999999 
	C47.354397,1.000000 53.708797,1.000000 60.531593,0.999999 
z"/>
<path fill="#111113" opacity="1.000000" stroke="none" 
	d="
M40.531342,0.999999 
	C40.130569,3.034101 39.720451,5.486849 38.313221,7.030765 
	C31.773350,14.205860 25.111023,21.285536 18.190104,28.091852 
	C12.924703,33.270065 7.205225,37.986557 1.343887,42.954239 
	C1.000000,29.075121 1.000000,15.150244 1.000000,1.000000 
	C14.020028,1.000000 27.041355,1.000000 40.531342,0.999999 
z"/>
<path fill="#1B1E22" opacity="1.000000" stroke="none" 
	d="
M16.444160,201.000000 
	C17.481081,199.128357 18.664940,196.151810 20.515587,195.653961 
	C23.049091,194.972427 24.423595,197.404572 23.999708,200.599075 
	C21.629442,201.000000 19.258884,201.000000 16.444160,201.000000 
z"/>
<path fill="#2EA6D9" opacity="1.000000" stroke="none" 
	d="
M116.896362,44.163769 
	C128.547028,52.492287 140.213196,60.809521 152.189529,69.230682 
	C152.499680,69.334602 152.664001,69.308014 152.776001,69.519768 
	C153.230606,69.923088 153.573212,70.114647 153.915817,70.306213 
	C158.999588,73.982124 164.288254,77.415871 169.063446,81.456467 
	C170.901733,83.011955 172.481674,85.898849 172.609558,88.264000 
	C173.055786,96.517197 172.815933,104.807487 172.939728,113.543365 
	C172.922501,115.209915 172.802353,116.416786 172.663361,117.981552 
	C153.054306,132.167786 133.480560,146.019699 113.829659,159.761261 
	C112.744774,160.519897 111.019501,160.362747 109.662109,160.155121 
	C109.603371,159.101456 109.474831,158.524521 109.346298,157.947586 
	C109.368652,157.524704 109.391006,157.101807 109.553223,155.997131 
	C109.785637,149.545349 109.878189,143.775360 109.970734,138.005356 
	C112.057228,136.663467 114.212173,135.416214 116.219139,133.964386 
	C129.330353,124.479858 142.411011,114.953064 155.493500,105.428879 
	C156.004623,105.056778 156.387451,104.504623 156.906860,104.148338 
	C162.010956,100.647263 161.907272,99.242981 156.411926,96.262108 
	C153.900909,94.900032 151.473541,93.383713 148.622314,91.547546 
	C147.037140,90.069344 145.934052,88.845711 144.623489,87.913925 
	C134.059006,80.402931 123.413994,73.004189 112.912903,65.406235 
	C111.495842,64.380936 109.881142,62.466846 109.829872,60.915668 
	C109.599991,53.959827 109.902397,46.986393 110.012711,40.019310 
	C110.012711,40.019310 110.419411,40.123680 110.801987,40.351952 
	C111.752609,40.805763 112.320663,41.031296 112.888710,41.256832 
	C112.888710,41.256832 112.869637,41.163570 112.967255,41.481926 
	C114.338753,42.579956 115.612633,43.359634 116.886513,44.139309 
	C116.886513,44.139309 116.911880,44.152485 116.896362,44.163769 
z"/>
<path fill="#FAFAFA" opacity="1.000000" stroke="none" 
	d="
M42.371239,126.968849 
	C41.609055,126.492256 41.180431,126.093346 40.264648,125.346611 
	C38.192493,123.978729 36.607494,122.958672 35.022499,121.938606 
	C33.098690,120.164032 31.174881,118.389458 29.122917,116.307419 
	C29.090588,107.040741 29.059853,98.076920 29.386478,89.126137 
	C29.453732,87.283127 30.340176,84.783623 31.718294,83.778374 
	C50.751617,69.894562 69.932755,56.213268 89.108414,42.525402 
	C89.613419,42.164917 90.464020,42.288574 91.360306,42.539902 
	C91.567162,42.893356 91.599289,42.971817 91.599289,42.971817 
	C91.505379,45.032909 91.411476,47.094006 91.436180,49.583572 
	C91.459038,52.987656 90.871109,56.050362 91.378792,58.919186 
	C92.214355,63.640862 89.620125,66.288139 86.399796,68.537766 
	C74.788162,76.649307 63.068398,84.605965 51.399342,92.635468 
	C48.185329,94.847046 45.018452,97.127106 41.805988,99.340973 
	C39.466053,100.953545 38.841488,101.432259 42.145142,103.403191 
	C48.787075,107.365692 54.755554,112.457039 61.515015,117.411972 
	C69.006104,122.528427 75.984123,127.315453 83.095993,132.376160 
	C83.764557,132.936508 84.299286,133.223160 85.026962,133.729797 
	C85.798279,134.005646 86.376640,134.061523 87.001831,134.433502 
	C87.663490,135.259232 88.278313,135.768890 88.979446,136.502670 
	C89.314102,136.968414 89.609787,137.064819 89.952812,137.016006 
	C91.742828,139.425903 92.545830,141.357941 91.408272,144.958710 
	C89.986748,149.458344 91.066643,154.748230 91.066643,160.984299 
	C83.112114,155.375244 75.889229,150.282104 68.332497,145.127731 
	C59.567368,139.059845 51.136082,133.053192 42.371239,126.968849 
z"/>
<path fill="#191C20" opacity="1.000000" stroke="none" 
	d="
M82.962143,132.102478 
	C75.984123,127.315453 69.006104,122.528427 61.858749,117.437950 
	C64.572159,116.865158 67.454910,116.595818 70.267929,116.332985 
	C69.652740,115.832932 68.599785,114.977036 67.610924,114.173233 
	C71.421715,110.055611 75.175514,105.900116 79.040253,101.850487 
	C83.249222,97.440163 87.489380,93.054016 91.867294,88.813583 
	C93.387886,87.340744 95.508339,86.497719 97.084862,85.069122 
	C98.612000,83.685280 99.877831,81.980949 101.100388,80.302284 
	C102.287903,78.671722 103.274727,76.895004 104.349686,75.182465 
	C105.877472,76.549271 107.461769,77.859970 108.903862,79.311897 
	C109.442734,79.854454 109.650009,80.726357 110.256104,81.946648 
	C113.026970,80.726677 115.652557,79.570663 118.296600,78.406532 
	C117.562012,75.935341 116.819000,73.435799 115.922577,70.420204 
	C114.449135,70.175140 112.223793,70.191833 110.335930,69.401955 
	C107.375221,68.163193 104.963989,57.447792 105.869705,54.524151 
	C106.983452,50.928963 106.927650,46.986198 107.635162,43.242390 
	C107.881165,41.940674 108.895485,40.784161 109.785812,39.790321 
	C109.902397,46.986393 109.599991,53.959827 109.829872,60.915668 
	C109.881142,62.466846 111.495842,64.380936 112.912903,65.406235 
	C123.413994,73.004189 134.059006,80.402931 144.623489,87.913925 
	C145.934052,88.845711 147.037140,90.069344 148.262207,91.514877 
	C145.858398,95.143745 142.647461,96.044418 138.445831,94.650246 
	C141.792435,88.399902 141.792435,88.399902 135.841827,84.713379 
	C131.907333,83.050751 131.220840,83.447845 130.643829,87.461205 
	C132.443710,87.305901 134.221558,87.152496 135.989380,87.374954 
	C135.601547,88.630745 135.464813,89.975403 134.807449,90.316391 
	C129.962982,92.829346 130.035645,97.670609 128.999390,102.000000 
	C125.880737,105.282127 120.533928,107.048691 121.381256,112.633514 
	C117.009033,115.804672 112.679146,118.711174 108.635010,121.972061 
	C106.448174,123.735359 103.432625,125.720222 106.448746,129.253448 
	C105.592407,129.967728 104.693321,131.304703 103.889816,131.249542 
	C102.700180,131.167847 101.578362,130.098267 101.067703,129.810242 
	C97.419174,132.334122 94.055397,134.661011 90.322220,137.001953 
	C89.609787,137.064819 89.314102,136.968414 88.999344,136.163116 
	C88.273628,135.105423 87.614319,134.611404 86.955002,134.117401 
	C86.376640,134.061523 85.798279,134.005646 85.039124,133.412598 
	C84.226265,132.617767 83.594208,132.360123 82.962143,132.102478 
z"/>
<path fill="#1C1C1D" opacity="1.000000" stroke="none" 
	d="
M129.381744,101.998657 
	C130.035645,97.670609 129.962982,92.829346 134.807449,90.316391 
	C135.464813,89.975403 135.601547,88.630745 135.989655,87.042068 
	C136.000946,85.889496 136.001938,85.445663 136.002930,85.001831 
	C141.792435,88.399902 141.792435,88.399902 138.047806,94.649994 
	C136.706619,96.587379 135.581085,98.364708 134.067261,99.702721 
	C132.882431,100.749939 131.216354,101.252670 129.381744,101.998657 
z"/>
<path fill="#1B4356" opacity="1.000000" stroke="none" 
	d="
M109.660027,138.164383 
	C109.878189,143.775360 109.785637,149.545349 109.510773,155.681778 
	C109.335403,150.139938 109.342361,144.231674 109.660027,138.164383 
z"/>
<path fill="#1E2024" opacity="1.000000" stroke="none" 
	d="
M131.044159,150.469788 
	C131.254471,150.817596 131.251633,151.162491 131.224045,151.505402 
	C131.223297,151.514786 130.831528,151.508667 130.831100,151.499832 
	C130.814758,151.156158 130.822800,150.811310 131.044159,150.469788 
z"/>
<path fill="#1B4356" opacity="1.000000" stroke="none" 
	d="
M109.089607,158.097458 
	C109.474831,158.524521 109.603371,159.101456 109.583862,159.861816 
	C109.234840,159.445953 109.033875,158.846634 109.089607,158.097458 
z"/>
<path fill="#18181C" opacity="1.000000" stroke="none" 
	d="
M100.614227,37.978119 
	C99.631088,36.798840 98.842667,35.342651 98.054237,33.886459 
	C98.730232,33.633369 99.406219,33.380280 100.082207,33.127190 
	C100.324448,34.651863 100.566696,36.176537 100.614227,37.978119 
z"/>
<path fill="#18181C" opacity="1.000000" stroke="none" 
	d="
M91.913338,42.949081 
	C91.599289,42.971817 91.567162,42.893356 91.585190,42.855675 
	C92.021721,42.394333 92.440231,41.970676 92.858742,41.547020 
	C93.010422,41.768433 93.162102,41.989845 93.313789,42.211258 
	C92.951653,42.449615 92.589516,42.687981 91.913338,42.949081 
z"/>
<path fill="#191B1F" opacity="1.000000" stroke="none" 
	d="
M116.873474,43.767250 
	C115.612633,43.359634 114.338753,42.579956 112.927490,41.508080 
	C114.146881,41.942318 115.503662,42.668755 116.873474,43.767250 
z"/>
<path fill="#191B1F" opacity="1.000000" stroke="none" 
	d="
M112.744270,40.967567 
	C112.320663,41.031296 111.752609,40.805763 111.009758,40.321815 
	C111.423248,40.268368 112.011536,40.473339 112.744270,40.967567 
z"/>
<path fill="#18171B" opacity="1.000000" stroke="none" 
	d="
M46.470512,132.517365 
	C46.452175,132.481064 46.488850,132.553650 46.470512,132.517365 
z"/>
<path fill="#191B1F" opacity="1.000000" stroke="none" 
	d="
M153.804169,70.036346 
	C153.573212,70.114647 153.230606,69.923088 152.807343,69.442657 
	C153.048645,69.358025 153.370575,69.562248 153.804169,70.036346 
z"/>
<path fill="#1A1A1E" opacity="1.000000" stroke="none" 
	d="
M35.029160,122.302399 
	C36.607494,122.958672 38.192493,123.978729 39.982613,125.234863 
	C37.244675,126.787560 35.835873,125.285973 35.029160,122.302399 
z"/>
<path fill="#161519" opacity="1.000000" stroke="none" 
	d="
M26.529186,117.482208 
	C26.547384,117.518272 26.510988,117.446144 26.529186,117.482208 
z"/>
<path fill="#1B1E22" opacity="1.000000" stroke="none" 
	d="
M87.001831,134.433502 
	C87.614319,134.611404 88.273628,135.105423 88.913040,135.938980 
	C88.278313,135.768890 87.663490,135.259232 87.001831,134.433502 
z"/>
<path fill="#1B1E22" opacity="1.000000" stroke="none" 
	d="
M83.095993,132.376160 
	C83.594208,132.360123 84.226265,132.617767 84.846169,133.192627 
	C84.299286,133.223160 83.764557,132.936508 83.095993,132.376160 
z"/>
<path fill="#1B1E22" opacity="1.000000" stroke="none" 
	d="
M135.841827,84.713379 
	C136.001938,85.445663 136.000946,85.889496 135.999664,86.666206 
	C134.221558,87.152496 132.443710,87.305901 130.643829,87.461205 
	C131.220840,83.447845 131.907333,83.050751 135.841827,84.713379 
z"/>
</svg>